<svg height="712" viewBox="0 0 1248 712" width="1248" xmlns="http://www.w3.org/2000/svg"><g fill="none" fill-rule="evenodd"><path d="m1035.1 613.9c-12.7 7.1-36.2 15.6-55.6-3.4-20-19.5-34.3-19.1-41-17.2-2-.4-4.2.5-5.3 2.4l-42.1 76.5c-3.3 6-9.7 9.8-16.6 9.8h-137.1c-2.7 0-4.9 2.2-4.9 4.9s2.2 4.9 4.9 4.9h137.1c10.5 0 20.1-5.7 25.2-14.9l24.6-44.8c9.2 1.2 21.7 5.3 33.4 16.8 22.6 22 49.1 9.6 58.8 3.7 2.4-1.4 4.3-3.5 5.7-5.9l16.5-29.1c1.5-2.4-1.2-5.1-3.6-3.7z" fill="#5D21D1"/><g transform="translate(72 466)"><g fill="#5D21D1"><path d="m282.7 59.4c-.6-1.3-2.2-1.8-3.4-1.1-.4.2-4.6 2.8-22.9 11.9l-8.4 4.1c-39.9 19.2-98.8 43.6-122.7 33.5-1-.4-2.1-.2-2.8.6-.1.1-8.7 9.4-27.5 18.2-17.3 8.1-47.1 17.3-90.6 15.2-1.5-.1-2.8 1.2-2.5 2.8.2 1.2 1.2 2 2.4 2.1 3.9.2 7.6.3 11.3.3l1.8 11.8c.4 2.6 3.9 3.3 5.2 1l7.6-13.2c5.3-.3 10.4-.8 15.3-1.4l2.8 10.2c.7 2.5 4.2 2.8 5.3.5l6-12.9c4.1-.8 7.9-1.7 11.5-2.6l2.3 8.5c.7 2.5 4.2 2.8 5.3.5l6.2-13.2c4.6-1.6 8.6-3.3 12.2-5l1.6 5.9c.7 2.5 4.2 2.8 5.3.5l6.2-13.4c8.1-4.9 12.9-9.2 15-11.3 5.1 1.8 11.3 2.3 18.3 1.9l4.2 10.4c1 2.4 4.3 2.3 5.2-.1l4.6-12.1c4.4-.8 8.9-1.8 13.5-3.1l1.9 8.1c.6 2.6 4.1 3 5.2.6l6.5-12.8c4.4-1.4 8.8-3 13.2-4.6l1.7 7.3c.6 2.5 3.9 3 5.2.8l7.8-13.7c3.9-1.6 7.8-3.2 11.7-4.9l1.9 7c.7 2.5 4.2 2.8 5.3.5l6.2-13.4c4.2-1.9 8.2-3.8 12.1-5.7l1.5 5.7c.7 2.5 4.2 2.8 5.3.5l5.7-12.2c15.5-7.8 18.4-9.6 19.9-10.4.6-.7 1.2-2.1.6-3.3z"/><path d="m401.8 24.1c-1-.4-2.1-.2-2.8.6-.1.1-8.7 9.4-27.5 18.2-17.3 8.1-47.1 17.3-90.6 15.2-1.5-.1-2.8 1.2-2.5 2.8.2 1.2 1.2 2 2.4 2.1 3.9.2 7.6.3 11.3.3l1.7 11.6c.4 2.7 4 3.4 5.4 1l7.4-13c5.3-.3 10.4-.8 15.3-1.4l2.7 10c.7 2.6 4.3 2.9 5.4.5l5.9-12.7c4.1-.8 7.9-1.7 11.5-2.6l3.2 9.6c.9 2.6 4.5 2.7 5.5.1l5.1-13.9c4.6-1.6 8.6-3.3 12.2-5l1.5 5.7c.7 2.6 4.3 2.9 5.4.5l6.1-13.1c8.1-4.9 12.9-9.2 15-11.3"/><path d="m1038.9 80.1c-.5-1.3-2-2-3.2-1.4-38.5 16.1-79 8-120.3-23.9-31.1-24-50.9-53.3-51.1-53.5-.8-1.1-2.3-1.4-3.4-.7-1.1.8-1.4 2.3-.7 3.4.1.2 5.9 8.8 16.2 20.5l4.9 23.5c.5 2.6 4 3.1 5.3.9l4.9-8.3c4.2 4.1 8.7 8.2 13.5 12.2l5.2 18.1c.7 2.4 3.9 2.8 5.2.7l4.6-7.2c4.1 2.9 8.2 5.5 12.4 8l7.2 20.3c.8 2.3 4 2.6 5.2.5l6.4-11.2c4 1.7 7.9 3.1 11.9 4.3l9.4 16.4c1.3 2.2 4.5 1.8 5.3-.6l3.5-11.7c5.1.7 10.2 1.1 15.3 1.1h1.2l10.1 13.2c1.4 1.9 4.4 1.3 5.1-1l4.1-14.3c6.8-1.4 13.5-3.4 20.2-6.2 1.3-.5 2.1-1.9 1.6-3.1z"/></g><g fill="#9b9b9b" transform="translate(0 57)"><path d="m3.9 84.1c1.59768088 0 2.90366088 1.24892 2.99490731 2.823727l.00509269.176273v98.8c0 1.656854-1.34314575 3-3 3-1.59768088 0-2.90366088-1.24892-2.99490731-2.823727l-.00509269-.176273v-98.8c0-1.656854 1.34314575-3 3-3z"/><path d="m124.2 50.1c1.597681 0 2.903661 1.24892 2.994907 2.823727l.005093.176273v131.2c0 1.656854-1.343146 3-3 3-1.597681 0-2.903661-1.24892-2.994907-2.823727l-.005093-.176273v-131.2c0-1.656854 1.343146-3 3-3z"/><path d="m280.8.3c1.597681 0 2.903661 1.24892 2.994907 2.8237272l.005093.1762728v180.8c0 1.656854-1.343146 3-3 3-1.597681 0-2.903661-1.24892-2.994907-2.823727l-.005093-.176273v-180.8c0-1.6568542 1.343146-3 3-3z"/><path d="m1036.9 20.5c1.59768 0 2.90366 1.24892 2.99491 2.8237272l.00509.1762728v162.4c0 1.656854-1.34315 3-3 3-1.59768 0-2.90366-1.24892-2.99491-2.823727l-.00509-.176273v-162.4c0-1.6568542 1.34315-3 3-3z"/></g></g><g transform="translate(135 454)"><path d="m789.9.6-362 2.4c-5.8 0-11 3-13.4 7.6l-116.8 212.5-296.8.2s-5.1 29.8 37.6 31.6l640-.8 125-234.5c4.8-8.9-2.6-19.1-13.6-19z" fill="#4a4a4a"/><g fill="#fff" transform="translate(334)"><path d="m.9 222.2 305.7-1.3 94.6-184.3c3.7-7.1-1.2-15.7-8.8-15.6l-277.8 3.4z"/><path d="m425.973171.79939048c13.103284-.11718646 22.030233 12.11245972 16.542513 23.08421162l-.170717.3320783-123.8 231.2999996c-.781859 1.460775-2.599873 2.011145-4.060647 1.229287-1.406672-.752901-1.969128-2.466626-1.310699-3.89694l.081412-.163707 123.792155-231.2852434c3.584494-6.7876592-2.091206-14.67978205-11.020359-14.59992605-1.656788.01481713-3.011892-1.31626325-3.026709-2.97305124-.014817-1.656788 1.316263-3.0118917 2.973051-3.02670883z"/></g></g><g transform="translate(373)"><g fill="#5D21D1" transform="translate(0 308)"><path d="m113.2 240.9 33.5 61.6c1.7 2.9 6.1 1.7 6.1-1.6l-2.2-28s19.6 67.4 46.5 69.1 52.7-71 52.7-71l-7.1 30.5c0 3.4 4.4 4.5 6.1 1.6l35.8-62.2"/><path d="m71.3 2.7s-79.9 108.2-69.6 205h176.3v-207.3z"/><path d="m322.5 2.7s79.9 108.2 69.6 205h-176.3v-207.3z"/></g><path d="m268.8 515.7c67.7-121.7 60.3-218.3 40.6-284.5-19.8-66.2-66.2-140-110.3-140s-90.5 73.8-110.3 140-28.1 162.8 39.6 284.5l-18.9 40.8h178.5z" fill="#fff"/><path d="m199.1 88.2c-21.9485 0-45.096993 16.950918-66.682183 46.401547-19.325802 26.367942-36.2330065 61.438489-46.4920118 95.7388-11.7022472 39.125694-16.6747339 79.361581-13.1282379 122.542718l.1334031 1.578773c4.4368269 51.077344 20.7720441 104.080064 50.9805216 159.312206l1.125508 2.045956-18.259118 39.419019c-.921016 1.988225.530929 4.260981 2.722118 4.260981h178.5l.172026-.004706c2.101773-.115491 3.454136-2.33531 2.54243-4.272685l-18.547456-39.412609 1.142004-2.073015c30.540443-55.835944 47.070763-109.368658 51.554677-160.839122 3.773244-43.312754-1.018897-83.675647-12.588296-122.553529-10.260195-34.304298-27.1674-69.374845-46.493202-95.742787-21.58519-29.450629-44.733683-46.401547-66.682183-46.401547zm0 6c19.580832 0 41.275069 15.886011 61.842817 43.948453 18.904845 25.793592 35.51376 60.245397 45.582988 93.9112 11.361916 38.18066 16.065028 77.793691 12.360514 120.317484-4.500989 51.666475-21.364551 105.52038-52.707978 161.864471l-.093929.183378c-.378151.805193-.380661 1.741096.001132 2.552405l17.186456 36.522609h-169.077l16.927118-36.539019c.403195-.870389.365857-1.881105-.100459-2.719373-31.3109582-56.285724-47.9946663-110.108226-52.2442263-161.849673-3.4819442-42.395174 1.3989881-81.890229 12.8967621-120.332282 10.0692282-33.665803 26.6781432-68.117608 45.5829882-93.9112 20.567748-28.062442 42.261985-43.948453 61.842817-43.948453z" fill="#2e186a" fill-rule="nonzero"/><g fill="#5D21D1"><path d="m208 89.5v-70.9c0-.2 0-.4 0-.7 1.3-1.8 2.1-4.1 2.1-6.5 0-6.1-4.9-11-11-11s-11 4.9-11 11c0 2.4.8 4.7 2.1 6.5v.7 70.8c-18.5 3.8-37 19.3-53.9 40.1 19.1-4.4 41.4-6.8 67-5.4 22.9 1.3 43.3 4.5 61.2 8.8-17.5-22.4-37.1-39.2-56.5-43.4z"/><path d="m281.2 169.7c-22.1-7.4-47.5-13.9-81.6-15.2-34.8-1.3-61.2 6.5-82.9 15-9.5 17.6-17 35-23.1 53.7 26-12.7 57.9-26.1 106.8-25.2 46.5.8 78.5 11.1 102.8 21.9-5.9-17.5-13.1-33.6-22-50.2z"/><path d="m266.2 515.2c3.2-5.8 6.3-11.5 9.2-17.2-15.3-6.2-37.3-11.4-76.4-11-39.5-.3-61.6 5-76.9 11.3 2.9 5.6 5.9 11.3 9 17 0 0 34.7-6.8 67.8-6.5 32.6-.3 67.3 6.4 67.3 6.4z"/></g><g transform="translate(143 234)"><path d="m55.8100359 0-55.8100359 91.4574272 56 32.5425728z" fill="#8c8c8c"/><path d="m111 91.4574272-56-91.4574272.1897781 124z" fill="#333"/><path d="m0 91.2513878 55.9324572-25.2513878.0675428 58z" fill="#383838"/><path d="m111 90.8537115-56-24.8537115.1211603 55z" fill="#141414"/><path d="m111 103-56 31.941615v44.058385z" fill="#333"/><path d="m0 103 56 31.941615v44.058385z" fill="#8c8c8c"/></g></g><g transform="translate(320 601)"><path d="m503.6 73.9h-157.2s-22.6-20.3-12.2-36.9 37.7-20.6 46.6-3.8c0 0 3.9-32.1 36.8-29.6 33 2.5 30.4 36.8 30.4 36.8s41.7-29.5 40.6 16.6c-.1-.1 2.5 16.9 15 16.9z" fill="#fff"/><path d="m346.4 76.9h157.2l.203329-.0052893c3.728895-.196318 3.728895-5.7931034 0-5.9894214l-.203329-.0052893c-4.175539 0-7.278164-2.4699797-9.56245-6.8698268-.856729-1.6501772-1.52176-3.4454064-1.996814-5.2111423-.140504-.5222403-.25528-1.0100775-.341435-1.4325974l-.079508-.4171002-.016793-.0983333-.003854.2005631c.52994-22.2092998-8.757333-31.1227759-23.794346-28.5502268-4.231389.7239107-8.667145 2.3267561-13.146833 4.5410007l-.799285.4014004c-.793091.4045753-1.567279.8182523-2.319691 1.2372211l-.632991.3560415-.003056-.0458318c-.055354-.6963373-.127599-1.4199172-.218909-2.1672704-.506195-4.1431169-1.517452-8.2354962-3.161593-12.0921875-4.86249-11.40602828-14.341816-18.82112006-29.163515-20.10002381l-.531619-.04306259c-16.020414-1.21735671-27.203243 5.05422707-34.070203 16.142443l-.4.6598615c-1.572007 2.6497522-2.80935 5.4204762-3.756519 8.214902l-.226586.6831696-.268076-.260968c-12.435416-11.8061671-36.983937-7.3433487-47.448197 9.3592189-1.79479 2.8647616-2.8152 5.9439312-3.10639 9.1770198-.670282 7.4421482 2.443256 15.1083929 7.960699 22.638629 1.713915 2.3391614 3.545134 4.4966584 5.378108 6.4281636l.460252.4804553c.890424.9205688 1.596324 1.5974089 2.044893 2.0003269.550606.4945709 1.264598.7681545 2.004711.7681545zm70.972692-70.3086239c12.806052.97015555 20.557854 6.9603279 24.630368 16.513295 1.405239 3.2962939 2.283336 6.8498014 2.725262 10.4668806.280228 2.2936197.355269 4.3184474.309791 5.9154169l-.016013.4395533-.013518.2467234c-.187628 2.475246 2.52656 4.070039 4.584732 2.7690792l.533233-.3624774.697387-.4589999c.303697-.1962284.63243-.4042325.984566-.6220382 1.684735-1.042052 3.541541-2.0856137 5.508131-3.0576702 4.001508-1.9778876 7.917073-3.3927636 11.499955-4.0057271 5.025303-.8597345 8.947361-.078557 11.679092 2.5432267l.18701.184095c3.214456 3.2450917 5.019713 9.3071017 4.93621 18.6706185l-.015491.9192576-.004461.099736.003794.3549516.020467.2230096.020207.1574578c.019272.1381637.045561.3010419.07771.4809079l.03406.1852425c.117587.6229458.283045 1.3488224.49158 2.1239292.580486 2.1576142 1.392837 4.350529 2.465686 6.4169827l.180476.341902c.637768 1.1883447 1.339627 2.289033 2.106749 3.2901554l.373325.4721158h-143.777l-.253217-.2502161c-.344559-.3428237-.712827-.7194487-1.100442-1.1278994-1.667663-1.7573088-3.337081-3.7241753-4.890426-5.8441893-4.736048-6.4637849-7.336923-12.8677341-6.824766-18.554209.207363-2.3023619.926838-4.4734344 2.215124-6.5297371 9.562596-15.2633751 33.506273-17.9331238 41.179245-4.4033174l.227502.4149564c1.346935 2.5425283 5.116703 1.9013085 5.603013-.8667964l.05879-.4073874c.030487-.1978101.078831-.4809495.148111-.8406405.179354-.9311717.426542-1.9769248.751508-3.1075124.930252-3.2364344 2.289676-6.4717744 4.147672-9.4719169 5.733602-9.2581604 14.828419-14.35874004 28.514578-13.3187584z" fill="#2e186a" fill-rule="nonzero"/><path d="m3.1 74.2h157.2s22.6-20.3 12.2-36.9-37.7-20.6-46.6-3.8c0 0-3.9-32.1-36.8-29.6-33 2.5-30.4 36.8-30.4 36.8s-41.7-29.5-40.6 16.6c.1-.1-2.5 16.8-15 16.9z" fill="#fff"/><path d="m3.1 77.2h157.2c.740113 0 1.454105-.2735836 2.004711-.7681545l.245391-.224146c.532324-.4933867 1.309844-1.2556633 2.259754-2.2566362 1.832974-1.9315052 3.664193-4.0890022 5.378108-6.4281636 5.517443-7.5302361 8.630981-15.1964808 7.960699-22.638629-.29119-3.2330886-1.3116-6.3122582-3.10639-9.1770198l-.362154-.5646582c-10.658462-16.2372362-34.791938-20.4665669-47.086043-8.7945607l-.269076.260968-.225586-.6831696c-1.0261-3.0272947-2.392751-6.0267726-4.156519-8.8747635-6.788029-10.96076518-17.793283-17.214989-33.5190302-16.1815068l-.5504881.03901184c-15.1276503 1.14603411-24.7754418 8.60132403-29.6958183 20.14313836-1.6441413 3.8566913-2.6553979 7.9490706-3.1615934 12.0921875l-.0649416.5560032c-.0409566.3676249-.0772829.7290896-.1092507 1.0839604l-.0487727.5731386-.6319908-.3560415c-1.0032158-.5586251-2.0451453-1.1078424-3.1189763-1.6386215-4.479688-2.2142446-8.9154439-3.81709-13.1468326-4.5410007l-.4493814-.0737289c-14.6231792-2.2957946-23.6852447 6.4569707-23.3579223 27.9616637l.0081034.4597289-.0464962.2648929c-.0893866.4709045-.2208078 1.0444189-.3892656 1.667465-.4747977 1.7560533-1.1395468 3.5430969-1.9961148 5.1880969l-.1730776.3258239c-2.2120178 4.0815945-5.17456896 6.4297579-9.102903 6.577716l-.31214203.0071013c-3.98390477.0318712-3.96003303 5.999904.02399923 5.999904zm114.741886-56.9898655c1.857996 3.0001425 3.21742 6.2354825 4.147672 9.4719169.324966 1.1305876.572154 2.1763407.751508 3.1075124l.131366.7346653.049468.3375962c.347023 2.8562665 4.096384 3.6076657 5.541793 1.1973349l.087287-.1547721c7.415296-13.9974122 31.747559-11.4291896 41.406747 3.988361 1.288286 2.0563027 2.007761 4.2273752 2.215124 6.5297371.512157 5.6864749-2.088718 12.0904241-6.824766 18.554209-1.553345 2.120014-3.222763 4.0868805-4.890426 5.8441893l-.287015.3003398-.55063.5641349c-.178071.1798005-.350487.351274-.516702.5141738h-143.813312l.0239329-.0280817c.9936387-1.2185513 1.8834861-2.596709 2.6719437-4.1109061 1.0730127-2.0606721 1.8856462-4.245273 2.4663852-6.3931531.2086833-.7718212.3742776-1.4944652.4919844-2.1145662l.0643301-.3577933c.0187807-.1113783.0347845-.2141133.047669-.3059343l.020321-.1574054.0206299-.2234083.003918-.3434892-.0061142-.1197954-.013898-.9116481c-.0851086-9.5435844 1.7918856-15.65746 5.1232198-18.8547135 2.7317313-2.6217837 6.653789-3.4029612 11.6790918-2.5432267 3.5828826.6129635 7.4984471 2.0278395 11.4999558 4.0057271 1.9665894.9720565 3.8233959 2.0156182 5.5081303 3.0576702l.6725844.4219577c.1067353.0679531.2107493.134671.3119815.2000805l.6973877.4589999.3939616.2692647c2.0265152 1.4336259 4.7899062-.0743032 4.7323412-2.5084877l-.0263101-.5180546c-.0667098-1.6446807-.0020128-3.7935681.2982322-6.2510178.4419255-3.6170792 1.320023-7.1705867 2.725262-10.4668806 4.0167257-9.4221046 11.6126281-15.37835657 24.1069337-16.47060328l.5234343-.04269172c13.6861588-1.03998164 22.7809758 4.060598 28.5145778 13.3187584z" fill="#2e186a" fill-rule="nonzero"/></g><path d="m1244.5 705.9c1.65685 0 3 1.343146 3 3 0 1.597681-1.24892 2.903661-2.82373 2.994907l-.17627.005093h-1241c-1.65685425 0-3-1.343146-3-3 0-1.597681 1.24891996-2.903661 2.82372721-2.994907l.17627279-.005093z" fill="#2e186a"/></g></svg>